<?xml version="1.0" encoding="utf-8"?>
<svg id="master-artboard" viewBox="0 0 100 100" xmlns="http://www.w3.org/2000/svg" width="100px" height="100px" version="1.1" style="shape-rendering:geometricPrecision; text-rendering:geometricPrecision; image-rendering:optimizeQuality; fill-rule:evenodd; clip-rule:evenodd"><rect id="ee-background" x="0" y="0" width="100" height="100" style="fill: white; fill-opacity: 0; pointer-events: none;"/><g transform="matrix(0.5921293497085572, 0, 0, 0.5921293497085572, -279.23787559422567, -62.61101572853396)"><g transform="matrix(1, 0, 0, 1, 145, 27)"><path class="st18" d="M429.1,178.9c1.3-3.5,2.6-10.6,3.6-20.8c0.8-8.2,5.7-36.9-5.5-36.9h-31.4c0.9,10.8,3.2,46.7-3.1,57&#10;&#9;&#9;&#9;c-2.8,4.6-6.1,6.9-9.3,8c-6.7,2.2-17.9-2.3-15.7-10.9c1.5-5.9,10.9-11.3,15.7-4.4c1.9,2.7,3.2,6.3,4.4,4.4&#10;&#9;&#9;&#9;c6.5-10.6,2.1-56.6,2-56.7l-0.3-3.1h3.1c12.7,0,41.3-7.7,46.9,5.3c0,0.1,1,16.6-1.1,37.9c-1,10.7-1.8,17-3.3,21&#10;&#9;&#9;&#9;c-2.4,6.6-10.4,10.4-17.1,8c-1.4-0.5-2.6-1.3-3.5-2.2c-1-1-1.7-2.2-2-3.6c-0.5-1.8-0.4-3.9,0.3-6.1c1.1-3,3.4-5.9,6.4-6.4&#10;&#9;&#9;&#9;C430.3,167.7,428.9,179.5,429.1,178.9L429.1,178.9z" style="fill: rgb(209, 225, 135);" transform="matrix(1, 0, 0, 1, 0, 0)"/><path class="st19" d="M428.8,176.4c1.3-3.5,2.6-10.6,3.6-20.8c0.8-8.2,5.7-36.9-5.5-36.9h-31.4c0.9,10.8,3.2,46.7-3.1,57.1&#10;&#9;&#9;&#9;c-2.8,4.6-6.1,6.9-9.3,8c-6.7,2.2-17.9-2.3-15.7-10.9c1.5-5.9,10.9-11.3,15.7-4.4c1.9,2.7,3.3,6.3,4.4,4.4&#10;&#9;&#9;&#9;c6.5-10.6,2.1-56.6,2-56.7l-0.3-3.1h3.2c12.7,0,41.3-7.7,46.9,5.3c0,0.1,1,16.6-1.1,37.9c-1,10.7-1.8,17-3.3,21&#10;&#9;&#9;&#9;c-2.4,6.6-10.4,10.4-17.1,8c-1.4-0.5-2.6-1.3-3.5-2.2c-1-1-1.6-2.2-2-3.6c-0.5-1.8-0.4-3.9,0.3-6.1c1.1-3,3.4-5.9,6.4-6.4&#10;&#9;&#9;&#9;C430.1,165.2,428.6,177.1,428.8,176.4L428.8,176.4z" style="fill: rgb(165, 205, 57);" transform="matrix(1, 0, 0, 1, 0, 0)"/><path class="st5" d="M428.6,178.5L428.6,178.5L428.6,178.5c-0.1,0.2-0.2,0.2-0.3,0.1c-0.1-0.1-0.2-0.2-0.2-0.5&#10;&#9;&#9;&#9;c0-0.5,0-1.3-0.2-2.4c-0.5-3.1-2.3-7.7-9.4-6.6c-2.1,0.3-3.9,1.9-5.1,3.8c-0.2,0.4-0.5,0.8-0.7,1.2c-0.2,0.4-0.4,0.8-0.5,1.2l0,0&#10;&#9;&#9;&#9;l0,0h0c-0.5,1.5-0.7,3-0.6,4.4c0,0.3,0.1,0.5,0.1,0.8c0,0.3,0.1,0.5,0.2,0.8l0,0l0,0v0c0.3,1,0.7,1.8,1.3,2.6&#10;&#9;&#9;&#9;c0.1,0.2,0.2,0.3,0.3,0.4c0.1,0.1,0.2,0.3,0.4,0.4l0,0l0,0c0.7,0.7,1.4,1.3,2.3,1.7c0.2,0.1,0.3,0.2,0.5,0.2h0&#10;&#9;&#9;&#9;c0.2,0.1,0.4,0.1,0.6,0.2l0,0h0l0,0c4.8,1.7,10.2,0.3,13.7-3.1c0.7-0.7,1.3-1.4,1.8-2.2c0.5-0.8,1-1.6,1.3-2.6l0,0l0,0l0,0&#10;&#9;&#9;&#9;c0.7-2,1.3-4.6,1.8-8c0.5-3.4,0.9-7.7,1.5-13c1.5-14.9,1.4-27.5,1.2-33.7c0-1.2-0.1-2.2-0.1-2.9c0-0.7-0.1-1.1-0.1-1.2&#10;&#9;&#9;&#9;c-3.7-8.5-17.5-8-30.1-6.7c-6.3,0.7-12.3,1.5-16.6,1.5v0h0h-2.9l0.3,2.9l0,0l0,0c0.1,1.3,4.2,45-1.8,56.3&#10;&#9;&#9;&#9;c-0.1,0.2-0.2,0.3-0.3,0.5c-0.4,0.7-0.9,0.8-1.3,0.5c-0.6-0.4-1.3-1.5-2-2.7c-0.4-0.7-0.9-1.5-1.4-2.1l0,0l0,0l0,0&#10;&#9;&#9;&#9;c-1.1-1.6-2.5-2.5-4-2.9c-1.2-0.3-2.4-0.3-3.6,0c-1.2,0.3-2.4,0.9-3.5,1.6c-2,1.4-3.6,3.5-4.2,5.6c-0.4,1.6-0.4,3.1,0.1,4.5&#10;&#9;&#9;&#9;c0.5,1.6,1.6,2.9,3,4c1.4,1.1,3.1,1.8,4.9,2.3c2.6,0.7,5.3,0.7,7.5-0.1c1.6-0.5,3.2-1.4,4.7-2.6c1.6-1.3,3.1-3,4.4-5.2&#10;&#9;&#9;&#9;c3.1-5.2,4.1-16.7,4.2-28.2c0.1-11.6-0.7-23.3-1.1-28.7l0-0.2h0.2h31.4l0,0c5.9,0,7.4,7.7,7.4,16.2c0,6.2-0.8,12.8-1.4,17.4&#10;&#9;&#9;&#9;c-0.2,1.4-0.3,2.6-0.4,3.5v0l0,0c-0.7,7.3-1.6,13.1-2.5,17.1c-0.2,0.8-0.4,1.5-0.5,2.1C429,177.5,428.8,178,428.6,178.5&#10;&#9;&#9;&#9;L428.6,178.5L428.6,178.5z M428.6,177.4c0.1-0.2,0.1-0.4,0.2-0.6c0.2-0.6,0.4-1.3,0.5-2.1c0.9-3.9,1.8-9.7,2.5-17v0v0&#10;&#9;&#9;&#9;c0.1-0.9,0.2-2.1,0.4-3.5c0.5-4.6,1.3-11.2,1.3-17.4c0-8.4-1.5-15.8-7-15.8v0h-31.2c0.4,5.5,1.2,17,1.1,28.5&#10;&#9;&#9;&#9;c-0.1,11.6-1.1,23.2-4.3,28.5c-1.4,2.3-2.9,4-4.5,5.3c-1.6,1.3-3.2,2.2-4.9,2.7c-2.3,0.8-5.1,0.8-7.7,0.1c-1.8-0.5-3.6-1.3-5-2.4&#10;&#9;&#9;&#9;c-1.4-1.1-2.6-2.5-3.1-4.2c-0.5-1.4-0.5-3-0.1-4.7c0.6-2.2,2.2-4.4,4.3-5.9c1.1-0.8,2.4-1.4,3.6-1.7c1.3-0.3,2.6-0.4,3.9,0&#10;&#9;&#9;&#9;c1.6,0.4,3,1.4,4.2,3.1v0v0l0,0c0.5,0.7,0.9,1.5,1.4,2.2c0.7,1.2,1.4,2.3,1.9,2.6c0.3,0.2,0.5,0.1,0.8-0.3&#10;&#9;&#9;&#9;c0.1-0.1,0.2-0.3,0.3-0.4c6-11.2,1.9-54.8,1.8-56.1l0,0v0l-0.3-3.1l0-0.2h0.2h3.1h0v0c4.2,0,10.2-0.9,16.5-1.5&#10;&#9;&#9;&#9;c12.7-1.3,26.8-1.8,30.5,7l0,0l0,0l0,0v0c0,0.1,0,0.5,0.1,1.2c0,0.7,0.1,1.7,0.1,2.9c0.2,6.2,0.2,18.8-1.2,33.7&#10;&#9;&#9;&#9;c-0.5,5.3-1,9.6-1.5,13c-0.5,3.4-1.1,6-1.8,8.1l0,0v0l0,0c-0.3,0.9-0.8,1.8-1.3,2.7c-0.5,0.8-1.2,1.6-1.9,2.3&#10;&#9;&#9;&#9;c-3.7,3.5-9.2,5-14.1,3.2l0,0h0l0,0c-0.2-0.1-0.4-0.1-0.6-0.2l0,0c-0.2-0.1-0.4-0.2-0.6-0.3c-0.9-0.5-1.8-1.1-2.4-1.8l0,0v0&#10;&#9;&#9;&#9;c-0.1-0.1-0.3-0.3-0.4-0.4c-0.1-0.2-0.2-0.3-0.4-0.5c-0.6-0.8-1-1.7-1.3-2.7l0,0l0,0v0c-0.1-0.3-0.1-0.5-0.2-0.8&#10;&#9;&#9;&#9;c-0.1-0.3-0.1-0.6-0.1-0.8c-0.1-1.4,0.1-3,0.6-4.6l0,0l0,0h0c0.2-0.4,0.3-0.9,0.5-1.3c0.2-0.4,0.4-0.8,0.7-1.2&#10;&#9;&#9;&#9;c1.3-2,3.1-3.7,5.4-4c7.5-1.2,9.4,3.7,9.9,7C428.5,176.3,428.6,176.9,428.6,177.4L428.6,177.4z" style="fill: rgb(35, 31, 32);" transform="matrix(1, 0, 0, 1, 0, 0)"/></g></g><g transform="matrix(0.4136559069156647, 0, 0, 0.4136559069156647, -56.55590857598915, -4.403434896822205)"><g transform="matrix(1, 0, 0, 1, 22, 82)"><path class="st22" d="M321.5,25.5c0,0-3.7,6.7-3.5,9.5c0.8,11.9,0.8,43.6-1.9,51.9c-8.6,26.8-35.6,10.2-22.7-2.3&#10;&#9;&#9;&#9;c3.2-3.1,8.5-4.2,15.1,0c1.2,0.8,2.1,1.2,2.3,0.5c3-9.2-0.5-54.7-0.5-54.9L321.5,25.5L321.5,25.5z" style="fill: rgb(205, 176, 191);" transform="matrix(1, 0, 0, 1, 0, 0)"/><path class="st23" d="M321.2,24.5c0,0-3.7,6.7-3.5,9.5c0.8,11.9,0.8,43.6-1.9,51.9c-8.6,26.8-35.6,10.2-22.7-2.3&#10;&#9;&#9;&#9;c3.2-3.1,8.5-4.2,15.1,0c1.2,0.8,2.1,1.2,2.3,0.5c3-9.2-0.5-54.7-0.5-54.9L321.2,24.5L321.2,24.5z" style="fill: rgb(160, 88, 123);" transform="matrix(1, 0, 0, 1, 0, 0)"/><path class="st5" d="M324.2,24.5c0,0.1,0,0.1-0.1,0.3c-0.5,1-3.6,6.8-3.4,9.2c0,0.3,0,0.6,0.1,1c0.1,1.8,0.2,3.9,0.3,6.3&#10;&#9;&#9;&#9;c0.1,2.4,0.1,5,0.1,7.8c0.1,13.9-0.5,31-2.3,36.9c-3,9.4-8.3,13.5-13.4,14.4c-2.8,0.5-5.5-0.1-7.8-1.3c-2.2-1.2-4-3.1-4.8-5.3&#10;&#9;&#9;&#9;c-1.2-3.1-0.6-6.8,3-10.2l0,0l0,0l0,0c0.5-0.4,1-0.8,1.5-1.2c0.5-0.4,1.1-0.7,1.7-0.9v0c3.2-1.3,7.3-1,12.1,2.1&#10;&#9;&#9;&#9;c0.6,0.4,1.1,0.7,1.5,0.8c0.3,0.1,0.5,0.1,0.5-0.1c0-0.1,0.1-0.3,0.1-0.5c2.7-10-0.5-52.8-0.7-54.3l0,0l0-0.1l0.1-0.1l11.1-4.8&#10;&#9;&#9;&#9;l0.3-0.1L324.2,24.5L324.2,24.5z M320.2,34c-0.2-2.3,2.4-7.5,3.3-9.1L313,29.5c0.2,2.7,3.3,44.4,0.6,54.3c0,0.2-0.1,0.3-0.1,0.5&#10;&#9;&#9;&#9;c-0.1,0.5-0.5,0.6-1,0.4c-0.4-0.1-1-0.4-1.6-0.8c-4.7-3-8.7-3.3-11.8-2.1v0c-0.6,0.2-1.1,0.5-1.7,0.9c-0.5,0.3-1,0.7-1.4,1.2l0,0&#10;&#9;&#9;&#9;h0c-3.4,3.3-4,6.8-2.9,9.8c0.8,2.1,2.5,3.9,4.6,5.1c2.2,1.2,4.8,1.7,7.5,1.3c4.9-0.8,10.1-4.8,13.1-14.1&#10;&#9;&#9;&#9;c1.9-5.8,2.4-22.9,2.3-36.8c0-2.8-0.1-5.4-0.1-7.8c-0.1-2.4-0.2-4.5-0.3-6.3C320.3,34.7,320.3,34.3,320.2,34L320.2,34z" style="fill: rgb(35, 31, 32);" transform="matrix(1, 0, 0, 1, 0, 0)"/></g></g><g transform="matrix(0.10681334137916566, -0.012571576051414015, 0.012571576051414015, 0.10681334137916566, -89.39513198594591, 8.176803832669727)"><g transform="matrix(1, 0, 0, 1, 0, 0)">
			<path class="st1" d="M1026,482.9H910c-5.7,0-10.3-4.6-10.3-10.3V282.7c0-5.7,4.6-10.3,10.3-10.3h116c5.7,0,10.3,4.6,10.3,10.3&#10;&#9;&#9;&#9;&#9;v189.9C1036.3,478.3,1031.7,482.9,1026,482.9z" style="fill: rgb(8, 36, 45);"/>
			<g>
				<path d="M 1010.700001 329.200012 A 42.700001 42.700001 0 0 1 968 371.900013 A 42.700001 42.700001 0 0 1 925.299999 329.200012 A 42.700001 42.700001 0 0 1 968 286.500011 A 42.700001 42.700001 0 0 1 1010.700001 329.200012 Z" class="st5" style="fill: rgb(193, 45, 45);"/>
				<path class="st3" d="M968,367.5c-21.1,0-38.3-17.2-38.3-38.3s17.2-38.3,38.3-38.3c21.1,0,38.3,17.2,38.3,38.3&#10;&#9;&#9;&#9;&#9;&#9;S989.1,367.5,968,367.5z" style="fill: rgb(216, 57, 57);"/>
				<path class="st5" d="M968,357.8c-15.8,0-28.7-12.9-28.7-28.7c0-15.8,12.9-28.7,28.7-28.7c15.8,0,28.7,12.9,28.7,28.7&#10;&#9;&#9;&#9;&#9;&#9;C996.7,345,983.8,357.8,968,357.8z M968,303.1c-14.4,0-26,11.7-26,26c0,14.4,11.7,26,26,26c14.4,0,26-11.7,26-26&#10;&#9;&#9;&#9;&#9;&#9;C994,314.8,982.3,303.1,968,303.1z" style="fill: rgb(193, 45, 45);"/>
				<path class="st6" d="M968,341.2c-6.6,0-12-5.4-12-12s5.4-12,12-12c6.6,0,12,5.4,12,12S974.6,341.2,968,341.2z" style="fill: rgb(233, 253, 255);"/>
			</g>
			<g>
				<path d="M 1010.700001 424.700012 A 42.700001 42.700001 0 0 1 968 467.400013 A 42.700001 42.700001 0 0 1 925.299999 424.700012 A 42.700001 42.700001 0 0 1 968 382.000011 A 42.700001 42.700001 0 0 1 1010.700001 424.700012 Z" class="st5" style="fill: rgb(193, 45, 45);"/>
				<path class="st3" d="M968,463c-21.1,0-38.3-17.2-38.3-38.3c0-21.1,17.2-38.3,38.3-38.3c21.1,0,38.3,17.2,38.3,38.3&#10;&#9;&#9;&#9;&#9;&#9;C1006.3,445.8,989.1,463,968,463z" style="fill: rgb(216, 57, 57);"/>
				<path class="st5" d="M968,453.4c-15.8,0-28.7-12.9-28.7-28.7c0-15.8,12.9-28.7,28.7-28.7c15.8,0,28.7,12.9,28.7,28.7&#10;&#9;&#9;&#9;&#9;&#9;C996.7,440.5,983.8,453.4,968,453.4z M968,398.7c-14.4,0-26,11.7-26,26c0,14.4,11.7,26,26,26c14.4,0,26-11.7,26-26&#10;&#9;&#9;&#9;&#9;&#9;C994,410.3,982.3,398.7,968,398.7z" style="fill: rgb(193, 45, 45);"/>
				<path class="st6" d="M968,436.7c-6.6,0-12-5.4-12-12c0-6.6,5.4-12,12-12c6.6,0,12,5.4,12,12C980,431.3,974.6,436.7,968,436.7z" style="fill: rgb(233, 253, 255);"/>
			</g>
			<g>
				<g>
					<path d="M 912.799988 282.200012 A 3.5 3.5 0 0 1 909.299988 285.700012 A 3.5 3.5 0 0 1 905.799988 282.200012 A 3.5 3.5 0 0 1 909.299988 278.700012 A 3.5 3.5 0 0 1 912.799988 282.200012 Z" class="st6" style="fill: rgb(233, 253, 255);"/>
					<path d="M 1030.199951 282.200012 A 3.5 3.5 0 0 1 1026.699951 285.700012 A 3.5 3.5 0 0 1 1023.199951 282.200012 A 3.5 3.5 0 0 1 1026.699951 278.700012 A 3.5 3.5 0 0 1 1030.199951 282.200012 Z" class="st6" style="fill: rgb(233, 253, 255);"/>
				</g>
				<g>
					<path d="M 912.799988 473.100006 A 3.5 3.5 0 0 1 909.299988 476.600006 A 3.5 3.5 0 0 1 905.799988 473.100006 A 3.5 3.5 0 0 1 909.299988 469.600006 A 3.5 3.5 0 0 1 912.799988 473.100006 Z" class="st6" style="fill: rgb(233, 253, 255);"/>
					<path d="M 1030.199951 473.100006 A 3.5 3.5 0 0 1 1026.699951 476.600006 A 3.5 3.5 0 0 1 1023.199951 473.100006 A 3.5 3.5 0 0 1 1026.699951 469.600006 A 3.5 3.5 0 0 1 1030.199951 473.100006 Z" class="st6" style="fill: rgb(233, 253, 255);"/>
				</g>
			</g>
		</g></g></svg>