<?xml version="1.0" encoding="utf-8"?>
<svg id="master-artboard" viewBox="0 0 512 512" xmlns="http://www.w3.org/2000/svg" width="45px" height="45px" version="1.1" style="shape-rendering:geometricPrecision; text-rendering:geometricPrecision; image-rendering:optimizeQuality; fill-rule:evenodd; clip-rule:evenodd"><rect id="ee-background" x="0" y="0" width="512" height="512" style="fill: white; fill-opacity: 0; pointer-events: none;"/><g transform="matrix(0.9631043076515198, 0, 0, 0.9631043076515198, -247.16825746586335, -8.380584433991714)"><g id="Layer_2" transform="matrix(1, 0, 0, 1, 0, 0)">
	<g id="Layer_1-2">
		<path class="st0" d="M652,46c27.6,0,50,22.4,50,50s-22.4,50-50,50s-50-22.4-50-50S624.4,46,652,46z" style="fill: rgb(158, 222, 115);"/>
	</g>
</g></g><g transform="matrix(1.9231165647506714, 0, 0, 1.9231165647506714, -14.876815495814526, -504.6755325527108)"><g id="Layer_2_16_" transform="matrix(1, 0, 0, 1, 0, 0)">
	<g id="Layer_1-2_16_">
		<path class="st0" d="M277,546l-43,25l-43-25v-50l43-25l43,25V546z" style="fill: rgb(228, 137, 0);"/>
	</g>
</g></g><g transform="matrix(1.26659882068634, 0, 0, 1.26659882068634, -49.48901748657232, -101.83151156780241)"><g id="Layer_2_18_" transform="matrix(1, 0, 0, 1, 0, 0)">
	<g id="Layer_1-2_18_">
		<path class="st0" d="M103,336.5L53,424h100L103,336.5" style="fill: rgb(190, 0, 0);"/>
	</g>
</g></g><g transform="matrix(1.5483920574188232, -0.2981491684913635, 0.2981491684913635, 1.5483920574188232, -259.66239897423293, 117.4644235327363)"><g transform="matrix(0.913877010345459, 0, 0, 0.913877010345459, 161.86631656357372, -26.14867148532224)"><rect id="rect-1" x="0" y="0" width="512" height="512" style="fill: white; fill-opacity: 0; pointer-events: none;"/><path d="M 158.84971618652344 81.70643615722656 L 159.54771423339844 323.135498046875 L 197.6034698486328 323.1585998535156 L 197.56492614746094 284.8757629394531 L 289.7534484863281 284.4327392578125 L 268.5798034667969 251.43040466308594 L 197.18101501464844 251.99142456054688 L 196.3599395751953 194.59381103515625 L 228.28817749023438 192.42259216308594" style="fill: rgb(151, 69, 120); fill-opacity: 1; stroke: rgb(0, 0, 0); stroke-opacity: 1; stroke-width: 0; paint-order: stroke;" transform="matrix(1.2166559686179872, 0.005108403682222144, -0.005114987199538382, 1.2166459550363737, -91.53046905480085, -78.98314657549858)"/><path d="M 424.6810607910156 280.4724426269531" style="fill: rgb(0, 0, 0); fill-opacity: 1; stroke: rgb(0, 0, 0); stroke-opacity: 1; stroke-width: 0; paint-order: stroke;"/><path d="M 181.76504516601562 302.3285217285156" style="fill: rgb(135, 185, 255); fill-opacity: 1; stroke: rgb(0, 0, 0); stroke-opacity: 1; stroke-width: 0; paint-order: stroke;"/><path d="M -264.0695495605469 163.24075317382812" style="fill: rgb(159, 151, 153); fill-opacity: 1; stroke: rgb(159, 151, 153); stroke-opacity: 1; stroke-width: 6; paint-order: fill;"/></g><g transform="matrix(0.12911348044872284, 0, 0, 0.12911348044872284, 71.62276655010454, 319.242217777025)"><g id="g-1" transform="matrix(1, 0, 0, 1, 0, 0)">
	<g id="g-2">
		<path class="st0" d="M652,46c27.6,0,50,22.4,50,50s-22.4,50-50,50s-50-22.4-50-50S624.4,46,652,46z" style="fill: rgb(159, 151, 153); fill-opacity: 1;"/>
	</g>
</g></g></g><g transform="matrix(0.7309497678592379, 0, 0, 0.7309497678592379, -15.51451548622772, -402.8732118085063)"><g id="Layer_2_10_" transform="matrix(1, 0, 0, 1, 0, 0)">
	<g id="Layer_1-2_10_">
		<path class="st0" d="M103,620l16.5,30.2l33.5,6.5l-23.3,25.1l4.2,34.2L103,701.4L72.1,716l4.2-34.2L53,656.7l33.5-6.5L103,620" style="fill: rgb(247, 234, 0);"/>
	</g>
</g></g></svg>
